/* XPM */
static const char  * const sneedacity_xpm[] = {
"48 48 443 2",
"  	c None",
". 	c #000000",
"+ 	c #050101",
"@ 	c #030101",
"# 	c #0D0302",
"$ 	c #220705",
"% 	c #3A0C09",
"& 	c #3B0C0A",
"* 	c #2B0907",
"= 	c #180504",
"- 	c #070101",
"; 	c #010000",
"> 	c #020000",
", 	c #040101",
"' 	c #0A0202",
") 	c #030100",
"! 	c #56120E",
"~ 	c #B0261D",
"{ 	c #CF2D22",
"] 	c #E93227",
"^ 	c #F13428",
"/ 	c #E73226",
"( 	c #C72B21",
"_ 	c #A2231B",
": 	c #791A14",
"< 	c #370C09",
"[ 	c #050000",
"} 	c #701813",
"| 	c #E03025",
"1 	c #160504",
"2 	c #801C15",
"3 	c #E33126",
"4 	c #F03428",
"5 	c #340B08",
"6 	c #C82B21",
"7 	c #240806",
"8 	c #711813",
"9 	c #BC291F",
"0 	c #6A1712",
"a 	c #4F110D",
"b 	c #3F0E0B",
"c 	c #2F0B08",
"d 	c #1E0906",
"e 	c #0F0503",
"f 	c #020100",
"g 	c #0C0402",
"h 	c #9B211A",
"i 	c #430E0B",
"j 	c #8B1E17",
"k 	c #EF3428",
"l 	c #330B08",
"m 	c #621510",
"n 	c #D72E24",
"o 	c #040201",
"p 	c #060703",
"q 	c #101909",
"r 	c #15260D",
"s 	c #1A3412",
"t 	c #214016",
"u 	c #274D1A",
"v 	c #2D591E",
"w 	c #346522",
"x 	c #0C1608",
"y 	c #3D0D0A",
"z 	c #A6241C",
"A 	c #250806",
"B 	c #C62B21",
"C 	c #410E0B",
"D 	c #54120E",
"E 	c #C12A20",
"F 	c #42812C",
"G 	c #63C242",
"H 	c #1A3211",
"I 	c #ED3327",
"J 	c #120403",
"K 	c #030000",
"L 	c #6B1712",
"M 	c #EA3327",
"N 	c #460F0C",
"O 	c #CA2C22",
"P 	c #3E7929",
"Q 	c #1E3B14",
"R 	c #240A07",
"S 	c #6D1712",
"T 	c #060101",
"U 	c #AD251D",
"V 	c #5F1410",
"W 	c #D52E23",
"X 	c #397126",
"Y 	c #61BD40",
"Z 	c #5AB13C",
"` 	c #54A538",
" .	c #4E9934",
"..	c #488D30",
"+.	c #162B0F",
"@.	c #1F0906",
"#.	c #BA281F",
"$.	c #290907",
"%.	c #E83226",
"&.	c #070201",
"*.	c #080C04",
"=.	c #0C1307",
"-.	c #050703",
";.	c #020101",
">.	c #100303",
",.	c #7B1B14",
"'.	c #1A0604",
").	c #AC251D",
"!.	c #5E1410",
"~.	c #57130E",
"{.	c #661611",
"].	c #751913",
"^.	c #841D16",
"/.	c #942019",
"(.	c #A3231B",
"_.	c #B3271E",
":.	c #DC3025",
"<.	c #8A1E17",
"[.	c #0B0202",
"}.	c #EC3327",
"|.	c #DA2F24",
"1.	c #611510",
"2.	c #982119",
"3.	c #D62E23",
"4.	c #AB251C",
"5.	c #56130E",
"6.	c #360B09",
"7.	c #1F0605",
"8.	c #A7241C",
"9.	c #CC2C22",
"0.	c #992119",
"a.	c #6C1712",
"b.	c #3C0D0A",
"c.	c #080201",
"d.	c #160403",
"e.	c #270806",
"f.	c #430F0B",
"g.	c #651511",
"h.	c #821C15",
"i.	c #A0221B",
"j.	c #B5271E",
"k.	c #E23125",
"l.	c #AF261D",
"m.	c #C32A20",
"n.	c #6C1812",
"o.	c #130403",
"p.	c #210805",
"q.	c #440F0C",
"r.	c #791A15",
"s.	c #B1261D",
"t.	c #9E221A",
"u.	c #CB2C22",
"v.	c #470F0C",
"w.	c #53120E",
"x.	c #EB3327",
"y.	c #B7281E",
"z.	c #871D16",
"A.	c #601510",
"B.	c #49100C",
"C.	c #360C09",
"D.	c #2A0907",
"E.	c #1E0708",
"F.	c #1B0604",
"G.	c #1F0705",
"H.	c #4D100D",
"I.	c #CD2C22",
"J.	c #9D221A",
"K.	c #5B140F",
"L.	c #150504",
"M.	c #300A08",
"N.	c #DE3025",
"O.	c #851D16",
"P.	c #031027",
"Q.	c #01050E",
"R.	c #340B09",
"S.	c #741913",
"T.	c #9F221A",
"U.	c #8F1F18",
"V.	c #5A140F",
"W.	c #140403",
"X.	c #051737",
"Y.	c #030F24",
"Z.	c #000308",
"`.	c #041532",
" +	c #000041",
".+	c #000043",
"++	c #000040",
"@+	c #000205",
"#+	c #092D6C",
"$+	c #061F49",
"%+	c #00003E",
"&+	c #00004E",
"*+	c #000054",
"=+	c #00003B",
"-+	c #0A337A",
";+	c #010309",
">+	c #020D1E",
",+	c #1050BD",
"'+	c #135EDF",
")+	c #010100",
"!+	c #1052C4",
"~+	c #010710",
"{+	c #1052C2",
"]+	c #050400",
"^+	c #040300",
"/+	c #060500",
"(+	c #0E0B00",
"_+	c #090700",
":+	c #030200",
"<+	c #1157CE",
"[+	c #020B1D",
"}+	c #0D3F93",
"|+	c #413500",
"1+	c #695700",
"2+	c #0C0A00",
"3+	c #876F00",
"4+	c #181400",
"5+	c #141000",
"6+	c #776200",
"7+	c #131000",
"8+	c #0E44A2",
"9+	c #03122C",
"0+	c #110E00",
"a+	c #9B8100",
"b+	c #BB9B00",
"c+	c #161200",
"d+	c #100D00",
"e+	c #DAB400",
"f+	c #6D5A00",
"g+	c #E6BE00",
"h+	c #0E0C00",
"i+	c #051A3B",
"j+	c #0C3A89",
"k+	c #DEB800",
"l+	c #F8CD00",
"m+	c #0D0B00",
"n+	c #1F0C00",
"o+	c #0F0500",
"p+	c #FFD300",
"q+	c #AE9000",
"r+	c #161100",
"s+	c #100600",
"t+	c #260F00",
"u+	c #130700",
"v+	c #3D3200",
"w+	c #161300",
"x+	c #000050",
"y+	c #0D4097",
"z+	c #000102",
"A+	c #1156CB",
"B+	c #00004D",
"C+	c #FED200",
"D+	c #211C00",
"E+	c #BF4C00",
"F+	c #993D00",
"G+	c #120700",
"H+	c #433700",
"I+	c #E9C100",
"J+	c #0D0500",
"K+	c #E85D00",
"L+	c #0E0500",
"M+	c #7E6900",
"N+	c #423600",
"O+	c #000045",
"P+	c #115AD5",
"Q+	c #000307",
"R+	c #020D1F",
"S+	c #000046",
"T+	c #352B00",
"U+	c #584900",
"V+	c #150800",
"W+	c #FF6600",
"X+	c #F96400",
"Y+	c #151200",
"Z+	c #532100",
"`+	c #431B00",
" @	c #AB8D00",
".@	c #776300",
"+@	c #01013C",
"@@	c #03142E",
"#@	c #061C41",
"$@	c #715D00",
"%@	c #937800",
"&@	c #060400",
"*@	c #5F2600",
"=@	c #572300",
"-@	c #B49500",
";@	c #A44200",
">@	c #883700",
",@	c #140E00",
"'@	c #D3AF00",
")@	c #A68900",
"!@	c #070634",
"~@	c #072351",
"{@	c #072250",
"]@	c #060537",
"^@	c #A78A00",
"/@	c #C4A200",
"(@	c #180C00",
"_@	c #B04600",
":@	c #AA4400",
"<@	c #150B00",
"[@	c #E3BC00",
"}@	c #7C6700",
"|@	c #0F0600",
"1@	c #E95D00",
"2@	c #C34E00",
"3@	c #1A0D00",
"4@	c #F7CC00",
"5@	c #D2AE00",
"6@	c #0A092F",
"7@	c #082960",
"8@	c #02012F",
"9@	c #00002A",
"0@	c #082961",
"a@	c #070331",
"b@	c #803300",
"c@	c #BB4B00",
"d@	c #923A00",
"e@	c #110700",
"f@	c #292200",
"g@	c #322900",
"h@	c #251E00",
"i@	c #9A3E00",
"j@	c #6F2C00",
"k@	c #0A0500",
"l@	c #302800",
"m@	c #241E00",
"n@	c #160900",
"o@	c #9C3E00",
"p@	c #B74900",
"q@	c #05022A",
"r@	c #031025",
"s@	c #01003E",
"t@	c #6E2C00",
"u@	c #8A3800",
"v@	c #110A00",
"w@	c #B19200",
"x@	c #997E00",
"y@	c #100900",
"z@	c #9A3D00",
"A@	c #552200",
"B@	c #070600",
"C@	c #FACF00",
"D@	c #9D8200",
"E@	c #A54200",
"F@	c #CB5100",
"G@	c #0A042F",
"H@	c #051635",
"I@	c #1158D2",
"J@	c #000049",
"K@	c #200D00",
"L@	c #391700",
"M@	c #020200",
"N@	c #786400",
"O@	c #5E4E00",
"P@	c #491D00",
"Q@	c #FE6600",
"R@	c #141100",
"S@	c #D0AC00",
"T@	c #6F5D00",
"U@	c #662900",
"V@	c #8E3900",
"W@	c #040138",
"X@	c #135CDA",
"Y@	c #E65C00",
"Z@	c #F76300",
"`@	c #392F00",
" #	c #1C1700",
".#	c #FC6500",
"+#	c #CA5100",
"@#	c #150900",
"##	c #0F0E00",
"$#	c #1B0B00",
"%#	c #451C00",
"&#	c #000044",
"*#	c #051A3C",
"=#	c #100700",
"-#	c #863600",
";#	c #140900",
">#	c #0F0B00",
",#	c #E8C000",
"'#	c #140800",
")#	c #635100",
"!#	c #CD5200",
"~#	c #000052",
"{#	c #061F4B",
"]#	c #0E46A5",
"^#	c #1D0B00",
"/#	c #130F00",
"(#	c #CAA700",
"_#	c #967C00",
":#	c #120F00",
"<#	c #1F0D00",
"[#	c #0A0400",
"}#	c #120800",
"|#	c #0F4BB3",
"1#	c #000101",
"2#	c #020E22",
"3#	c #1158D0",
"4#	c #070400",
"5#	c #080600",
"6#	c #241D00",
"7#	c #070300",
"8#	c #0F0C00",
"9#	c #625100",
"0#	c #050200",
"a#	c #03132C",
"b#	c #080700",
"c#	c #090503",
"d#	c #0C0703",
"e#	c #050500",
"f#	c #1159D2",
"g#	c #061B3F",
"h#	c #020B1A",
"i#	c #0C3985",
"j#	c #150B05",
"k#	c #3F2412",
"l#	c #6B3D1E",
"m#	c #8E5027",
"n#	c #0E0804",
"o#	c #051531",
"p#	c #0C3B8C",
"q#	c #00000A",
"r#	c #955429",
"s#	c #C87137",
"t#	c #744220",
"u#	c #00000E",
"v#	c #71401F",
"w#	c #C36E35",
"x#	c #422512",
"y#	c #492914",
"z#	c #030201",
"A#	c #BC6A34",
"B#	c #573118",
"C#	c #64381B",
"D#	c #C77137",
"E#	c #6C3D1E",
"F#	c #4E2C16",
"G#	c #050301",
"H#	c #703F1F",
"I#	c #26160A",
"J#	c #2A180C",
"                                            . . . . .                                           ",
"                                + @ . . . # $ % & * * = - . . ; - >                             ",
"                            , ' ) ! ~ { ] ^ ^ ^ ^ ^ ^ ^ ^ / ( _ : < > [                         ",
"                        + , } | 1 2 ^ ^ ^ ^ ^ ^ ^ ^ ^ ^ ^ ^ 3 4 ^ ^ ~ .                         ",
"                    . ; 5 6 ^ ^ 7 8 ^ ^ ^ ^ 9 0 a b c d e f . g h ^ ^ i +                       ",
"                  + - j k ^ ^ ^ l m ^ ^ ^ n o p q r s t u v w x y ^ ^ z ;                       ",
"                @ A B ^ ^ ^ ^ ^ C D ^ ^ ^ E . F G G G G G G G H c ^ ^ I J .                     ",
"            K ; L M ^ ^ ^ ^ ^ ^ a N ^ ^ ^ O . P G G G G G G G Q R ^ ^ ^ S T                     ",
"            . U ^ ^ ^ ^ ^ ^ ^ ^ V < ^ ^ ^ W . X G G Y Z `  ...+.@.^ ^ ^ #..                     ",
"            . I ^ ^ ^ ^ ^ ^ ^ ^ S $.^ ^ ^ %.&.*.=.-.. . . . . ;.: ^ ^ ^ k >.                    ",
"            ; 4 ^ ^ ^ ^ ^ ^ ^ ^ ,.'.^ ^ ^ ^ ).!.~.{.].^./.(._.:.^ ^ ^ ^ ^ ! T                   ",
"            ) ^ ^ ^ ^ ^ ^ ^ ^ ^ <.[.^ ^ ^ ^ ^ ^ ^ ^ ^ ^ ^ ^ ^ ^ }.|.6 #.).1.>                   ",
"            > ^ ^ ^ ^ ^ ^ ^ ^ ^ 2.. I ^ ^ ^ ^ ^ 3.4.<.} 5.6.7.[.. . . . . . + . T               ",
"            . k ^ ^ ^ ^ ^ ^ ^ ^ 8.. | 9.0.a.b.# . . c.d.e.f.g.h.i.j.( W k.^ I l.!.[.; ,         ",
"            . M ^ ^ ^ ^ ^ ^ k m.n.>.o.. , p.q.r.s.k.^ ^ ^ ^ ^ ^ ^ ^ ^ ^ ^ ^ ^ ^ ^ ] t.l . ,     ",
"            . / ^ ^ ^ u.<.v.[.. . . w.#.}.^ ^ ^ ^ ^ ^ ^ ^ ^ ^ x.y.z.A.B.C.D.E.'.F.G.5 H.$.. T   ",
"            . I.J.K.L.. , )       T . M.j N.^ ^ ^ ^ ^ ^ ( O.i &.. + - . . . P.Q..   . ; T - T   ",
"            . . ; + .                 > @ @ R.S.T.U.V.W.. , K             . X.Y.                ",
"          . Z.`..  + +                      . - . , +                 .+++. X.Y..               ",
"        . @+#+$+. %+. &+                                            *+. =+. X.-+;+.             ",
"      . >+,+'+$+. %+. &+    .                 )+                .   *+. =+. X.'+!+P..           ",
"      ~+{+'+'+$+. %+. &+  ]+^+                /+(+            _+:+  *+. =+. X.'+'+<+[+.         ",
"    . }+'+'+'+$+. %+. &+  |+1+              2+3+4+            5+6+7+*+. =+. X.'+'+'+8+.         ",
"  . 9+'+'+'+'+$+. %+. &+0+a+b+c+    >       d+e+f+      >     (+g+h+*+. =+. X.'+'+'+'+i+.       ",
"  . j+'+'+'+'+$+. %+. &+5+k+l+m+    n+o+    5+p+q+r+  s+t+u+  v+p+w+x+. =+. X.'+'+'+'+y+.       ",
"  z+A+'+'+'+'+$+. %+. B+h+C+p+D+  u+E+F+G+  H+p+I+h+  J+K+L+  M+p+N+O+. =+. X.'+'+'+'+P+Q+      ",
"  R+'+'+'+'+'+$+. %+. S+T+p+p+U+  V+W+X+o+  M+p+p+Y+  Z+W+`+d+ @p+.@+@. =+. X.'+'+'+'+'+@@      ",
". #@'+'+'+'+'+$+. %+. %+$@p+p+%@&@*@W+W+=@(+-@p+p+H+G+;@W+>@,@'@p+)@!@. =+. X.'+'+'+'+'+~@.     ",
". {@'+'+'+'+'+$+. %+. ]@^@p+p+/@(@_@W+W+:@<@[@p+p+}@|@1@W+2@3@4@p+5@6@. =+. X.'+'+'+'+'+7@.     ",
". {@'+'+'+'+'+$+. %+. 8@. . . . . . . . . . . . . . . . . . . . . . 9@. =+. X.'+'+'+'+'+0@.     ",
". #@'+'+'+'+'+$+. %+. a@b@c@c@d@e@f@g@g@h@e@i@c@c@j@k@l@g@m@n@o@c@p@q@. =+. X.'+'+'+'+'+{@.     ",
"  r@'+'+'+'+'+$+. %+. s@t@W+W+u@v@w@p+p+x@y@z@W+W+A@B@C@p+D@<@E@W+F@G@. =+. X.'+'+'+'+'+H@      ",
"  z+I@'+'+'+'+$+. %+. J@K@W+W+L@M@N@p+p+O@. P@W+Q@u+R@S@p+T@. U@W+V@W@. =+. X.'+'+'+'+X@;+      ",
"  . }+'+'+'+'+$+. %+. &+G+Y@Z@L+  `@p+p+ #  s+.#+#@###D@p+v+  $#W+%#&#. =+. X.'+'+'+'+8+.       ",
"  . *#'+'+'+'+$+. %+. &+=#-#E@;#  >#C+,#m+  '#_@t@    )#p+Y+  G+!#J+~#. =+. X.'+'+'+'+{#.       ",
"    . ]#'+'+'+$+. %+. &+  s+^#    /#(#_#:#    <#J+    4+,#h+  [#n+}#*+. =+. X.'+'+'+|#1#        ",
"    . 2#3#'+'+$+. %+. &+    4#    5#U+6#      7#      8#9#7+    0#  *+. =+. X.'+'+P+a#.         ",
"      . H@<+'+$+. %+. &+            )+b#        c#d#;.e#.           *+. =+. X.'+f#g#.           ",
"        . h#i##@. %+. &+                  ; j#k#l#m#n#)+            *+. =+. o#p#R+.             ",
"            . . . %+q#                    . r#s#s#s#t#.               u#=+. . .                 ",
"                                          . v#s#s#s#w#n#.                                       ",
"                                          o x#s#s#s#s#y#z#                                      ",
"                                          . c#A#s#s#s#B#z#                                      ",
"                                            )+C#D#E#w#F#z#                                      ",
"                                            . G#H#. I#J#)                                       ",
"                                              z#. @ G#. .                                       ",
"                                                .     .                                         ",
"                                                                                                "};
