/* XPM */
static const char  *const sneedacity_xpm[] = {
/* columns rows colors chars-per-pixel */
"48 48 188 2 ",
"   c None",
".  c #6E4313",
"X  c #714415",
"o  c #77481A",
"O  c #7B4B1C",
"+  c #754719",
"@  c #7F4E23",
"#  c #0F4E6D",
"$  c #104E6C",
"%  c #18516B",
"&  c #245669",
"*  c #335C66",
"=  c #3B5F65",
"-  c #49505C",
";  c #616D5D",
":  c #965B1B",
">  c #A5651F",
",  c #87542A",
"<  c #8E5A32",
"1  c #935D36",
"2  c #9B633E",
"3  c #A56726",
"4  c #A96B31",
"5  c #BA762B",
"6  c #D84C3A",
"7  c #DD543C",
"8  c #ED4F2A",
"9  c #E64E2B",
"0  c #F24D27",
"q  c #F14E28",
"w  c #ED512A",
"e  c #E55B2B",
"r  c #EB582D",
"t  c #F2532C",
"y  c #F35B2D",
"u  c #E75534",
"i  c #F15730",
"p  c #F15C34",
"a  c #F15F38",
"s  c #D26D2F",
"d  c #D9662D",
"f  c #C77B33",
"g  c #D8793D",
"h  c #F36130",
"j  c #F2643B",
"k  c #F56B34",
"l  c #F77B3B",
"z  c #F57136",
"x  c #BB4B51",
"c  c #9E6540",
"v  c #A46A46",
"b  c #AF7150",
"n  c #AF7150",
"m  c #9A4969",
"M  c #B15E66",
"N  c #B87678",
"B  c #BC6261",
"V  c #D2594B",
"C  c #C7554F",
"Z  c #D2695A",
"A  c #CA754B",
"S  c #F26B42",
"D  c #F27046",
"F  c #F2744A",
"G  c #F2794E",
"H  c #F27D52",
"J  c #E36042",
"K  c #D27866",
"L  c #7DC342",
"P  c #BA8B39",
"I  c #A8993A",
"U  c #9CA43C",
"Y  c #94AD3D",
"T  c #8DB33F",
"R  c #DC8B31",
"E  c #F2932D",
"W  c #F8833D",
"Q  c #F39731",
"!  c #F49B35",
"~  c #F59E39",
"^  c #E48E2E",
"/  c #F7A23C",
"(  c #F8A53F",
")  c #928155",
"_  c #BC904D",
"`  c #83BD41",
"'  c #88B840",
"]  c #978874",
"[  c #B69A6E",
"{  c #B9A377",
"}  c #D89A49",
"|  c #F98940",
" . c #FB9947",
".. c #FA9645",
"X. c #F38256",
"o. c #F28559",
"O. c #F38B5E",
"+. c #EC835C",
"@. c #E3A34A",
"#. c #EBA649",
"$. c #F8A741",
"%. c #FAAB45",
"&. c #FBAE49",
"*. c #FCA44C",
"=. c #FDB34C",
"-. c #FDAE50",
";. c #FEB651",
":. c #FFBB55",
">. c #F4B456",
",. c #EFB55C",
"<. c #F28E61",
"1. c #F49365",
"2. c #F39669",
"3. c #F49C6D",
"4. c #F39E70",
"5. c #E29D7B",
"6. c #D6AC68",
"7. c #C7A76E",
"8. c #F3A374",
"9. c #EAAA6B",
"0. c #3836A9",
"q. c #2938B7",
"w. c #3339B0",
"e. c #4D3E9F",
"r. c #58489D",
"t. c #786698",
"y. c #7F7C90",
"u. c #4A4BA9",
"i. c #4563BD",
"p. c #4169BE",
"a. c #5968B4",
"s. c #6668A7",
"d. c #6F72AC",
"f. c #0F31C4",
"g. c #1235C5",
"h. c #153EC6",
"j. c #143CC9",
"k. c #193EC6",
"l. c #213EC1",
"z. c #1945C8",
"x. c #2249C8",
"c. c #2253CB",
"v. c #255BCD",
"b. c #2D58C8",
"n. c #365BC4",
"m. c #2964CD",
"M. c #2D6BCF",
"N. c #3968C6",
"B. c #2F70D0",
"V. c #2F6ED0",
"C. c #4870C2",
"Z. c #8C7699",
"A. c #A5798C",
"S. c #778B97",
"D. c #5C8AAF",
"F. c #5B85AA",
"G. c #5E8EB3",
"H. c #648AA8",
"J. c #6393B6",
"K. c #6B9DBB",
"L. c #6596B8",
"P. c #608FB2",
"I. c #6FA2BF",
"U. c #5088CA",
"Y. c #679CC6",
"T. c #71A6C1",
"R. c #75ABC5",
"E. c #78AFC8",
"W. c #7CB4CB",
"Q. c #7FB8CE",
"!. c #9B9A88",
"~. c #80888A",
"^. c #A69D82",
"/. c #B1898E",
"(. c #8295B1",
"). c #CE9482",
"_. c #80B9CE",
"`. c #82BCD1",
"'. c #86C1D4",
"]. c #89C5D6",
"[. c #8DCADA",
"{. c #8BC7D8",
"}. c #91CEDD",
"|. c #93D2DE",
" X c #96D5E0",
".X c #9CDBE4",
"XX c #A0E0E7",
"oX c #A2E3E9",
/* pixels */
"                                  z.z.j.j.j.k.l.q.w.0.0.0.w.q.                                  ",
"                      m.v.v.c.c.c.n.i.a.d.Z.A.N K Z Z V V C x m r.g.                            ",
"                M.m.v.v.b.C.d.Z./.).5.8.8.3.1.O.X.G D j p t t 0 7 u.                            ",
"            M.v.v.N.a.Z.N K +.O.1.3.8.8.8.4.2.<.o.H D j p t t q 0 m                             ",
"          B.c.z.s.B J j S G X.O.1.3.8.8.8.3.2.<.o.H D j p t t q q 6 e.                          ",
"          m.h.x.M t p j S F H O.1.2.3.4.3.2.1.O.X.G S j p t t q q 8 m                           ",
"          v.g.b.C t p j S F H o.O.1.2.2.2.1.<.o.H F S j p t q q q q 6                           ",
"          v.g.n.V t i p j S G H o.O.<.<.<.O.o.X.G D j j p r e e e e q                           ",
"          c.f.i.7 q t p j S D G H X.o.o.o.X.H G F S g I U Y Y T ' U e                           ",
"        M.z.g.a.u q t i p j S S F G H H H G F D S j P L L L L L L ` d 0                         ",
"        M.z.g.a.u q q t i p j j S S F F F D S S j p P L L L L L L ` s q                         ",
"        N.z.g.s.w q q q t i p j j j S S S j j j p i f L L L L L L ` s q                         ",
"        N.h.j.s.w q q q q t t p p p a j j p p p t t e I U U I P f s w q q                       ",
"        p.h.j.t.8 q q q q q t t t p p i p i t t t q q w w w q q q q q q q q                     ",
"        p.h.j.t.q q q q q q q h W  .*.l t t t q q q q q q q q q q q q q q q q q                 ",
"        N.z.j.t.q q q q t k ..-.;.:.:.;...h q q q q q q q q q q q q q q q q q q q q             ",
"        N.z.j.t.u q t k  .;.:.:.;.;.;.;.:.-.W y q q q q q q q q q q q q q q q q q q q q         ",
"      (.U.N.x.C.y.A ..;.:.:.:.:.;.;.:.;.:.:.:.*.l t q q q q q q q q q q q 8 9 9 q q q q q       ",
"      '.`.W.Y.Y.L.H.7.:.:.:.:.:.:.:.;.:.:.:.:.:.;.*.l y t q q t y h z W W } - -           q q   ",
"    [.[.].'._.W.T.J.S.,.:.:.;.;.:.:.:.:.:.:.:.;.;.:.;.-. .| |  .*.;.;.:.=.} & #                 ",
"   X|.|.}.[.'._.E.K.G.^.:.:.:.;.:.:.:.:.:.:.;.;.:.:.:.:.:.:.:.:.:.:.;.:.=.@.* $                 ",
"  .X X X X}.[.'.Q.T.L.S.,.:.:.:.:.:.:.:.:.:.;.;.:.:.:.:.;.;.;.;.;.;.;.:.=.#.= $                 ",
"oX.X.X.X X X}.].`.E.K.H.6.:.:.:.:.:.:.:.:.:.:.;.:.;.:.:.:.:.;.;.;.;.;.:.=.#.= $                 ",
"oXoXoXXX.X X|.[.`.W.I.G.{ :.:.:.:.:.;.;.:.:.:.:.:.;.:.:.:.;.;.;.;.;.;.:.=.#.= #                 ",
"oXoXoXoX.X.X X[.'.Q.T.J.^.;.;.:.;.;.;.:.:.:.:.;.:.:.:.;.;.;.;.;.:.:.;.:.=.@.* $                 ",
"oXoXoXoXXX.X X[.'.Q.T.J.!.;.;.;.;.;.;.:.:.:.:.;.:.:.:.:.;.;.:.;.:.:.;.:.=.} & $                 ",
"oXoXoXoXXX.X X[.'.Q.T.J.!.;.;.;.:.:.:.:.:.:.;.;.:.:.:.:.:.:.:.:.;.:.;.;.=._ % $                 ",
"oXoXoXoX.X X|.[.'.W.I.G.^.:.;.;.:.:.:.:.:.:.;.:.:.:.:.:.:.:.:.:.;.;.:.=.&.) $                   ",
"oXXX.X.X.X X}.{.`.W.K.D.{ :.:.:.:.:.:.:.:.:.:.:.:.:.:.:.:.:.:.:.;.;.;.=.%.; #                   ",
"  .X.X X X|.[.'.Q.R.L.H.6.:.:.:.:.:.:.:.:.:.:.:.;.:.:.:.:.:.;.:.;.:.=.&.} *                     ",
"   X X|.}.[.].`.W.I.G.S.>.:.:.:.;.;.:.:.:.:.:.:.;.;.:.:.:.:.;.;.:.;.=.%._                       ",
"  }.[.[.{.'.`.W.T.L.F.[ =.:.;.;.;.;.:.:.:.:.:.;.;.;.:.:.:.:.:.;.;.=.%.$.                        ",
"    ].'.`.Q.W.T.L.D.~.#.&.=.:.;.;.;.;.;.:.:.:.:.:.;.:.;.;.;.;.;.=.&.$.(                         ",
"      Q.W.R.I.L.D.S.} ( %.&.=.;.;.;.;.;.:.;.:.:.:.:.:.;.;.:.;.=.&.$.(                           ",
"        T.K.J.H.] } ! / ( %.&.=.;.:.:.;.;.:.:.:.;.;.;.;.;.=.=.%.$./ /                           ",
"                E E Q ! / ( $.%.=.=.=.;.:.:.;.;.:.:.;.=.=.&.%.$./ ~                             ",
"                  E E Q ! ~ / $.$.%.&.=.=.=.=.=.=.=.=.&.%.$.( / !                               ",
"                    E E Q ! ! ~ / ( $.%.%.%.%.%.%.%.%.$.( / ~ ! !                               ",
"                      E E E Q ! ! ~ / / ( ( ( ( $.( / ~ ! ! ! !                                 ",
"                        E E E E Q ! ! ! ! ~ ~ ! R 5 4 4 4 R                                     ",
"                            E E E E E Q Q ! ^ > O @ < c c                                       ",
"                                E E E E E E > . + , 2 b n v                                     ",
"                                      E E E : . o , c n n v                                     ",
"                                              X X , 1 v v 2                                     ",
"                                                X o , < < ,                                     ",
"                                                  X + O O o                                     ",
"                                                    X X X X                                     ",
"                                                                                                "
};
