/* XPM */
static const char  * const sneedacity32_xpm[] = {
/* columns rows colors chars-per-pixel */
"32 32 169 2 ",
"   c None",
".  c #744616",
"X  c #77491B",
"o  c #794A1C",
"O  c #744718",
"+  c #0C4D6D",
"@  c #1C536A",
"#  c #315B66",
"$  c #464D5C",
"%  c #616E5E",
"&  c #706356",
"*  c #69725D",
"=  c #70745C",
"-  c #7C427D",
";  c #4B6562",
":  c #8A541A",
">  c #845227",
",  c #8E5930",
"<  c #935D36",
"1  c #A5682E",
"2  c #AF6F2F",
"3  c #D14B3F",
"4  c #EB4E2B",
"5  c #E54F2C",
"6  c #F24D26",
"7  c #F14E28",
"8  c #EC5329",
"9  c #E9582B",
"0  c #F2522B",
"q  c #F35F2F",
"w  c #E54F32",
"e  c #EB5835",
"r  c #F15730",
"t  c #F15C34",
"y  c #F35E38",
"u  c #DE612C",
"i  c #C27D33",
"p  c #CB7431",
"a  c #D47235",
"s  c #ED633E",
"d  c #F46335",
"f  c #F56B34",
"g  c #F2643C",
"h  c #F2683F",
"j  c #E4713F",
"k  c #F67237",
"l  c #F77F3C",
"z  c #BB4E53",
"x  c #B95B5E",
"c  c #A96D4B",
"v  c #A76C4A",
"b  c #81477E",
"n  c #904971",
"m  c #9B5A75",
"M  c #AB5C69",
"N  c #CD584C",
"B  c #D25647",
"V  c #C35A55",
"C  c #DA6B45",
"Z  c #F26C43",
"A  c #EE704A",
"S  c #F27046",
"D  c #F27349",
"F  c #F2794F",
"G  c #EC7F58",
"H  c #F27C51",
"J  c #CA7367",
"K  c #7DC342",
"L  c #BB8837",
"P  c #A79939",
"I  c #B29038",
"U  c #9DA33B",
"Y  c #CC803B",
"T  c #E38B2C",
"R  c #F2942E",
"E  c #E29032",
"W  c #F29631",
"Q  c #F59B35",
"!  c #F09D3A",
"~  c #F6A13C",
"^  c #F8A53F",
"/  c #B28C4E",
"(  c #BE8D56",
")  c #81BF41",
"_  c #A88D6B",
"`  c #BBA578",
"'  c #F88840",
"]  c #FA9545",
"[  c #F89542",
"{  c #E5805F",
"}  c #F28156",
"|  c #F28559",
" . c #F2895D",
".. c #DCA04B",
"X. c #F9A740",
"o. c #FAAB45",
"O. c #FBAE48",
"+. c #F7A74B",
"@. c #FCB24C",
"#. c #E9B35F",
"$. c #FEB551",
"%. c #FFBB55",
"&. c #F5B455",
"*. c #C09B66",
"=. c #DC9277",
"-. c #F28E62",
";. c #F39366",
":. c #F49B6C",
">. c #F39769",
",. c #F39E70",
"<. c #E68A68",
"1. c #CFAB6D",
"2. c #DBAE65",
"3. c #C4A772",
"4. c #E6B360",
"5. c #F6A473",
"6. c #383DAE",
"7. c #673F8B",
"8. c #3C42AE",
"9. c #2F4ABE",
"0. c #7B4C87",
"q. c #735693",
"w. c #6D679C",
"e. c #5055AF",
"r. c #5167B8",
"t. c #7372A8",
"y. c #6465A6",
"u. c #163FC8",
"i. c #1E4ECA",
"p. c #1942C8",
"a. c #1D52CE",
"s. c #234BC6",
"d. c #234AC5",
"f. c #265DCD",
"g. c #2255CB",
"h. c #325CC6",
"j. c #3451C0",
"k. c #2B67CE",
"l. c #2561D0",
"z. c #3669CA",
"x. c #9C6880",
"c. c #8D7285",
"v. c #7C929B",
"b. c #678CA8",
"n. c #7392A4",
"m. c #6E88B4",
"M. c #6697B8",
"N. c #6699BC",
"B. c #6A9DBC",
"V. c #6694B3",
"C. c #6EA3C5",
"Z. c #76ACC6",
"A. c #75AAC5",
"S. c #7AB2CA",
"D. c #9F9C87",
"F. c #97809A",
"G. c #829093",
"H. c #B68D8F",
"J. c #CC9484",
"K. c #80BACF",
"L. c #83BDD1",
"P. c #86C1D4",
"I. c #89C5D6",
"U. c #8CC8D9",
"Y. c #8BC7D8",
"T. c #91CFDD",
"R. c #94D2DF",
"E. c #9CDBE4",
"W. c #A2E2E9",
/* pixels */
"                    a.i.s.j.e.e.q.0.b - 7.6.                    ",
"            l.f.h.r.t.F.H.J.=.<.G A s e w z 8.                  ",
"        f.h.y.x.J { -.:.5.5.:.;.} S g t 0 7 n                   ",
"      k.p.q.e d Z H  .>.,.,.>.-.} S g r 0 7 B                   ",
"      f.u.m 0 y Z F  .-.;.;.-. .F Z y 0 7 7 4                   ",
"      g.p.M 0 t g S F }  . . .H S j L I P P i 7                 ",
"      i.d.x 6 0 y g Z D F F D Z h Y K K K K U 8                 ",
"      i.d.V 6 0 0 y g h Z Z Z g y a ) K K K U 8                 ",
"      s.d.N 7 7 7 0 r t y y y t 0 9 L L i p u 7 7               ",
"    w.s.9.N 7 7 7 0 d ' ' t 0 0 7 7 7 7 7 7 7 7 7 7             ",
"    w.s.9.B 6 0 f ] $.%.%.+.k 0 7 7 7 7 7 7 7 7 7 7 7 7         ",
"    m.z.h.c.C ] $.%.%.%.%.%.$.] f 0 7 7 7 7 7 7 0 5 4 7 7 7     ",
"    P.S.C.N.v.4.%.%.%.%.%.%.%.%.$.] k q q f l ' [ & $           ",
"  R.T.U.L.Z.M.D.%.%.%.%.%.%.%.%.%.%.%.$.$.%.%.%.@.% +           ",
"E.E.E.R.Y.K.C.n.#.%.%.%.%.%.%.%.%.%.%.%.%.%.%.%.@.= +           ",
"W.W.E.E.T.P.Z.V.1.%.%.%.%.%.%.%.%.%.%.%.%.%.%.%.@.= +           ",
"W.W.W.E.R.I.S.M.` %.%.%.%.%.%.%.%.%.%.%.%.%.%.%.O.% +           ",
"W.W.W.E.R.I.S.M.` %.%.%.%.%.%.%.%.%.%.%.%.%.%.$.+.; +           ",
"W.W.E.E.T.P.Z.V.3.%.%.%.%.%.%.%.%.%.%.%.%.%.%.@...#             ",
"E.E.E.R.U.L.C.b.2.%.%.%.%.%.%.%.%.%.%.%.%.%.%.@./ @             ",
"  R.R.U.L.S.N.G.&.%.%.%.%.%.%.%.%.%.%.%.%.%.@.o./               ",
"  Y.P.L.S.B.b.*.@.%.%.%.%.%.%.%.%.%.%.%.%.@.O.X.                ",
"    S.A.B.b._ ~ o.@.$.%.%.%.%.%.%.%.%.%.@.O.X.                  ",
"          ( W Q ~ X.O.@.$.%.%.%.%.$.@.@.O.^ ~                   ",
"            R R Q ~ ^ o.O.@.@.@.@.O.O.X.~ Q                     ",
"              R R W Q ~ ~ ^ X.X.X.~ ! Q Q                       ",
"                R R R W Q Q Q E 2 1 1 i                         ",
"                    R R R R T : X < c v                         ",
"                              . o < c c                         ",
"                                O > < ,                         ",
"                                  O o X                         ",
"                                                                "
};
