/* XPM */
static const char  * const sneedacity32_xpm[] = {
"32 32 320 2",
"  	c None",
". 	c #0A0202",
"+ 	c #170503",
"@ 	c #170504",
"# 	c #190504",
"$ 	c #180604",
"% 	c #140503",
"& 	c #0E0402",
"* 	c #110302",
"= 	c #0D0202",
"- 	c #260806",
"; 	c #731913",
"> 	c #911F18",
", 	c #AA251C",
"' 	c #C62B21",
") 	c #C12A20",
"! 	c #B3271E",
"~ 	c #A6241C",
"{ 	c #992119",
"] 	c #7E1B15",
"^ 	c #4D110D",
"/ 	c #140403",
"( 	c #100302",
"_ 	c #801C16",
": 	c #53120E",
"< 	c #F13428",
"[ 	c #EA3327",
"} 	c #D22D23",
"| 	c #C32A20",
"1 	c #B4271E",
"2 	c #A3231B",
"3 	c #9A211A",
"4 	c #D72E24",
"5 	c #F03428",
"6 	c #320B09",
"7 	c #110403",
"8 	c #380C0A",
"9 	c #D42E23",
"0 	c #440F0B",
"a 	c #B6271E",
"b 	c #0C0803",
"c 	c #100E06",
"d 	c #18190A",
"e 	c #1F240E",
"f 	c #253112",
"g 	c #213011",
"h 	c #31140B",
"i 	c #B0261D",
"j 	c #150404",
"k 	c #0E0302",
"l 	c #851D16",
"m 	c #CF2D22",
"n 	c #360C09",
"o 	c #811C15",
"p 	c #2E521D",
"q 	c #63C242",
"r 	c #54A438",
"s 	c #190D06",
"t 	c #EF3428",
"u 	c #150403",
"v 	c #120403",
"w 	c #DE3025",
"x 	c #270806",
"y 	c #8C1E17",
"z 	c #2D4819",
"A 	c #63C142",
"B 	c #5CB43D",
"C 	c #56A839",
"D 	c #468A2F",
"E 	c #130B05",
"F 	c #6B1712",
"G 	c #410E0B",
"H 	c #EC3327",
"I 	c #1A0604",
"J 	c #BC291F",
"K 	c #070502",
"L 	c #090803",
"M 	c #000000",
"N 	c #080502",
"O 	c #150C05",
"P 	c #241209",
"Q 	c #8B2218",
"R 	c #160504",
"S 	c #470F0C",
"T 	c #E53126",
"U 	c #DC3025",
"V 	c #E03025",
"W 	c #D02D23",
"X 	c #BD291F",
"Y 	c #0B0202",
"Z 	c #420F0B",
"` 	c #E13125",
" .	c #861D16",
"..	c #5B130F",
"+.	c #3E0D0B",
"@.	c #280906",
"#.	c #210705",
"$.	c #340B08",
"%.	c #430E0B",
"&.	c #48100E",
"*.	c #130403",
"=.	c #3B0D0B",
"-.	c #C92B21",
";.	c #4B100C",
">.	c #1B0604",
",.	c #1F0605",
"'.	c #671611",
").	c #982019",
"!.	c #BA281F",
"~.	c #EB3327",
"{.	c #B2261D",
"].	c #370D0D",
"^.	c #D32D23",
"/.	c #450F0C",
"(.	c #010000",
"_.	c #52120D",
":.	c #DA2F24",
"<.	c #831C15",
"[.	c #2C0A08",
"}.	c #160403",
"|.	c #0F0506",
"1.	c #090201",
"2.	c #1B0504",
"3.	c #0D0404",
"4.	c #120503",
"5.	c #100402",
"6.	c #490F0C",
"7.	c #942018",
"8.	c #B5271E",
"9.	c #932018",
"0.	c #49100C",
"a.	c #150504",
"b.	c #030F24",
"c.	c #010711",
"d.	c #04122A",
"e.	c #00003D",
"f.	c #000053",
"g.	c #170604",
"h.	c #0F0202",
"i.	c #000041",
"j.	c #000042",
"k.	c #030C1E",
"l.	c #020A17",
"m.	c #072557",
"n.	c #1050BD",
"o.	c #000035",
"p.	c #00001A",
"q.	c #1050BE",
"r.	c #04142F",
"s.	c #061F4A",
"t.	c #135EDF",
"u.	c #1054C5",
"v.	c #1B1600",
"w.	c #221C00",
"x.	c #241C00",
"y.	c #0F0C00",
"z.	c #125DDD",
"A.	c #1158D2",
"B.	c #020B1A",
"C.	c #01060D",
"D.	c #1159D3",
"E.	c #2B2300",
"F.	c #BD9D00",
"G.	c #7A6400",
"H.	c #3C3300",
"I.	c #917800",
"J.	c #282100",
"K.	c #125DDC",
"L.	c #0D4096",
"M.	c #072251",
"N.	c #443900",
"O.	c #FCD100",
"P.	c #2E2600",
"Q.	c #4D1F00",
"R.	c #220D00",
"S.	c #C6A400",
"T.	c #715D00",
"U.	c #291100",
"V.	c #2E1200",
"W.	c #292300",
"X.	c #E6BE00",
"Y.	c #372D00",
"Z.	c #135EDE",
"`.	c #020A18",
" +	c #0D429C",
".+	c #00003C",
"++	c #6A5800",
"@+	c #FFD300",
"#+	c #3F3400",
"$+	c #2F1300",
"%+	c #F76300",
"&+	c #431B00",
"*+	c #2D2500",
"=+	c #F5CB00",
"-+	c #B69700",
";+	c #7B3100",
">+	c #732E00",
",+	c #302800",
"'+	c #473A00",
")+	c #0F4EBA",
"!+	c #000039",
"~+	c #AA8D00",
"{+	c #574700",
"]+	c #4A1D00",
"^+	c #FF6600",
"/+	c #923A00",
"(+	c #302600",
"_+	c #E7BF00",
":+	c #261600",
"<+	c #CF5300",
"[+	c #B94B00",
"}+	c #382900",
"|+	c #645300",
"1+	c #0A337A",
"2+	c #1055CA",
"3+	c #040334",
"4+	c #2A1900",
"5+	c #1C0F00",
"6+	c #1C0B00",
"7+	c #411A00",
"8+	c #331400",
"9+	c #120900",
"0+	c #0E0600",
"a+	c #401A00",
"b+	c #391700",
"c+	c #120800",
"d+	c #1F1100",
"e+	c #000019",
"f+	c #0C3B8B",
"g+	c #020136",
"h+	c #973C00",
"i+	c #CC5200",
"j+	c #512000",
"k+	c #5F4E00",
"l+	c #483B00",
"m+	c #2D1300",
"n+	c #C95000",
"o+	c #210F00",
"p+	c #4A3E00",
"q+	c #331500",
"r+	c #793100",
"s+	c #0B357F",
"t+	c #0D3F97",
"u+	c #00003B",
"v+	c #722D00",
"w+	c #3F1900",
"x+	c #504200",
"y+	c #281100",
"z+	c #EB5E00",
"A+	c #C85000",
"B+	c #241600",
"C+	c #A78B00",
"D+	c #2C1200",
"E+	c #592300",
"F+	c #135FE1",
"G+	c #092C6A",
"H+	c #092D6D",
"I+	c #3C1800",
"J+	c #EC5E00",
"K+	c #2B1200",
"L+	c #392E00",
"M+	c #4F4100",
"N+	c #A24100",
"O+	c #6C2B00",
"P+	c #B39500",
"Q+	c #715E00",
"R+	c #B74900",
"S+	c #381600",
"T+	c #135DDB",
"U+	c #010916",
"V+	c #010408",
"W+	c #1055C8",
"X+	c #230E00",
"Y+	c #481D00",
"Z+	c #2A2200",
"`+	c #E5BD00",
" @	c #302700",
".@	c #2C1100",
"+@	c #6C5900",
"@@	c #463A00",
"#@	c #230D00",
"$@	c #0E46A7",
"%@	c #06204D",
"&@	c #135CDC",
"*@	c #1054C6",
"=@	c #362D00",
"-@	c #1D1700",
";@	c #251F00",
">@	c #2A2300",
",@	c #1157CD",
"'@	c #010815",
")@	c #061F48",
"!@	c #0D429D",
"~@	c #050500",
"{@	c #160B06",
"]@	c #23150A",
"^@	c #412512",
"/@	c #1F1208",
"(@	c #060400",
"_@	c #030B1B",
":@	c #0E48A9",
"<@	c #030C1C",
"[@	c #C87137",
"}@	c #9B582B",
"|@	c #0D0703",
"1@	c #000047",
"2@	c #000043",
"3@	c #060402",
"4@	c #B86833",
"5@	c #1A0F07",
"6@	c #0D0704",
"7@	c #6F3F1E",
"8@	c #C46F36",
"9@	c #2F1B0D",
"0@	c #5E361A",
"a@	c #392110",
"b@	c #190F07",
"c@	c #0B0602",
"d@	c #030101",
"e@	c #020101",
"                          . + @ # $ % &                         ",
"                  * = - ; > , ' ) ! ~ { ] ^ / %                 ",
"                ( _ , : < < < [ } | 1 2 3 4 5 6                 ",
"            7 8 9 < ) 0 < < a b c d e f g h < i j               ",
"          k l 5 < < m n < < o p q q q q r s < t u               ",
"        v ' < < < < w x < < y z q A B C D E < < F               ",
"        G < < < < < H I < < J K L M N O P Q < < a R             ",
"        S < < < < < < / < < < T U H < < < < V W X Y             ",
"        Z < < < < < < # H < ` 1  ...+.@.u u #.$.%.&.*.j         ",
"        =.< < < < 5 -.- ;.>.,.Z '.).!.4 ~.< < < < < t {.Z *     ",
"        ].< ^.> /.( k (._.:.< < < < < t | <.: [.}.|.1.Y 2.# M   ",
"        3.R 4.5.        4.k 6.7.8.9.0.( a.        b.c.          ",
"      M d.M e.f.              5.g.h.          i.j.k.l.          ",
"    M m.n.M o.e.                              p.i.k.q.r.        ",
"    s.t.u.M o.e.  v.          w.x.        y.  p.i.k.z.A.B.      ",
"  C.D.t.u.M o.e.E.F.          G.H.        I.J.p.i.k.t.K.L.M     ",
"  M.K.t.u.M o.e.N.O.P.  Q.R.  S.T.  U.V.W.X.Y.p.i.k.t.t.Z.`.    ",
"M  +t.t.u.M o..+++@+#+$+%+&+*+=+-+  ;+>+,+@+'+p.i.k.t.t.K.M.    ",
"M )+t.t.u.M o.!+~+@+{+]+^+/+(+@+_+:+<+[+}+@+|+p.i.k.t.t.t.1+    ",
"M 2+t.t.u.M o.3+:+4+5+6+7+8+9+4+4+0+a+b+c+4+d+e+i.k.t.t.t.f+    ",
"M n.t.t.u.M o.g+h+i+j+J.k+l+m+i+n+o+k+p+q+i+r+e+i.k.t.t.t.s+    ",
"  t+t.t.u.M o.u+v+^+w+x+@+I.y+z+A+B+_+C+D+%+E+p.i.k.t.t.F+G+    ",
"  H+F+t.u.M o.e.I+J+K+L+@+M+  N+O+  P+Q+  R+S+p.i.k.t.t.T+U+    ",
"  V+W+t.u.M o.e.X+Y+  Z+`+ @  8+.@  +@@@  .@#@p.i.k.t.F+$@M     ",
"    %@&@*@M o.e.        =@-@        ;@>@      p.i.k.F+,@'@      ",
"      )@!@M o.e.        ~@  {@]@^@/@(@        p.i._@:@<@        ",
"        M M .+              E [@[@}@|@        1@2@M M           ",
"                            3@4@[@[@5@                          ",
"                            6@7@8@[@9@                          ",
"                              |@0@a@b@                          ",
"                              c@d@  e@                          ",
"                                                                "};
