<?xml version="1.0" encoding="UTF-8" standalone="no"?>
<svg
   style="display:inline"
   id="svg2"
   height="166"
   width="166"
   version="1.0"
   sodipodi:docname="sneedacity.svg"
   inkscape:version="1.1 (c68e22c387, 2021-05-23)"
   xmlns:inkscape="http://www.inkscape.org/namespaces/inkscape"
   xmlns:sodipodi="http://sodipodi.sourceforge.net/DTD/sodipodi-0.dtd"
   xmlns="http://www.w3.org/2000/svg"
   xmlns:svg="http://www.w3.org/2000/svg"
   xmlns:rdf="http://www.w3.org/1999/02/22-rdf-syntax-ns#"
   xmlns:cc="http://creativecommons.org/ns#"
   xmlns:dc="http://purl.org/dc/elements/1.1/">
  <sodipodi:namedview
     id="namedview29"
     pagecolor="#ffffff"
     bordercolor="#666666"
     borderopacity="1.0"
     inkscape:pageshadow="2"
     inkscape:pageopacity="0.0"
     inkscape:pagecheckerboard="0"
     showgrid="false"
     inkscape:zoom="2.5722563"
     inkscape:cx="23.908971"
     inkscape:cy="99.134756"
     inkscape:window-width="1920"
     inkscape:window-height="1007"
     inkscape:window-x="1920"
     inkscape:window-y="0"
     inkscape:window-maximized="1"
     inkscape:current-layer="g13910"
     width="129px"
     inkscape:snap-global="false" />
  <metadata
     id="metadata7">
    <rdf:RDF>
      <cc:Work
         rdf:about="">
        <dc:format>image/svg+xml</dc:format>
        <dc:type
           rdf:resource="http://purl.org/dc/dcmitype/StillImage" />
        <cc:license
           rdf:resource="GPL v2 or later" />
        <dc:rights>
          <cc:Agent>
            <dc:title>Sneedacity development team</dc:title>
          </cc:Agent>
        </dc:rights>
        <dc:creator>
          <cc:Agent>
            <dc:title>Aaron Spike</dc:title>
          </cc:Agent>
        </dc:creator>
        <dc:date>2009-06-14</dc:date>
      </cc:Work>
    </rdf:RDF>
  </metadata>
  <defs
     id="defs5">
    <clipPath
       id="clipPath3126">
      <path
         style="fill:none;stroke:#000000;stroke-width:1px;stroke-linecap:butt;stroke-linejoin:miter;stroke-opacity:1"
         id="path3128"
         d="m 30,94 2,2 3,10 1,-12 3,15 V 90 l 2,5 3,14 V 90 l 2,2 3,17 3,-23 6.615678,25.91971 L 59,96 l 2,-6 2,25 6,-25 2,21 5,-22 5,24 1,-18 3,-6 1,23 5,-22 3,10 1,-9 3,6 V 78 L 95,86 94,69 92,82 90,78 89,64 84,83 83,79 80,49 77,75 75,83 71,56 67,79 65,85 64,43.695313 58,90 52,48 49,84 47,80 45,56 44,80 41,87 39,63 37,82 34,77 V 91 L 30,76 Z" />
    </clipPath>
    <clipPath
       id="clipPath2798">
      <path
         style="display:inline;overflow:visible;visibility:visible;fill:#000000;fill-opacity:1;fill-rule:nonzero;stroke:none;stroke-width:18.99;marker:none;enable-background:accumulate"
         id="path2800"
         d="M 64,6.875 C 50.736931,6.8749995 38.641338,11.015795 29.71875,17.96875 20.796162,24.921705 15.000001,34.870138 15,45.9375 v 4 C 6.141206,54.425978 -2.65625e-7,66.200002 0,80 3.5e-7,97.663999 10.049452,112 23,112 V 45.9375 c 1e-6,-8.28809 4.289844,-15.915956 11.65625,-21.65625 C 42.022656,18.540956 52.424603,14.875 64,14.875 c 11.575394,0 21.977345,3.665955 29.34375,9.40625 C 100.71016,30.021545 105,37.649411 105,45.9375 V 112 c 12.95055,0 23,-14.336001 23,-32 0,-13.799998 -6.14121,-25.574022 -15,-30.0625 v -4 C 113,34.870138 107.20384,24.921705 98.28125,17.96875 89.358662,11.015795 77.263067,6.8750003 64,6.875 Z M 26,49 v 63 c 2,0 4,-1 5,-3 V 51 c -1,-1 -3,-2 -5,-2 z m 76,0 c -2,0 -4,1 -5,2 v 58 c 1,2 3,3 5,3 z" />
    </clipPath>
    <filter
       id="filter10749"
       style="color-interpolation-filters:sRGB"
       x="-0.023497241"
       y="-0.021276207"
       width="1.046459"
       height="1.0423546">
      <feMorphology
         id="feMorphology10751"
         result="result0"
         in="SourceGraphic"
         radius="4" />
      <feGaussianBlur
         id="feGaussianBlur10753"
         result="result91"
         stdDeviation="1.1662394e-05"
         in="result0" />
      <feComposite
         id="feComposite10755"
         in2="result91"
         in="SourceGraphic"
         operator="in" />
    </filter>
    <filter
       id="filter10809"
       style="color-interpolation-filters:sRGB"
       x="-0.054836954"
       y="-0.066769371"
       width="1.1096739"
       height="1.1335387">
      <feGaussianBlur
         id="feGaussianBlur10811"
         result="blur"
         stdDeviation="1.5"
         in="SourceGraphic" />
      <feDiffuseLighting
         id="feDiffuseLighting10813"
         result="diffuse"
         lighting-color="#ffffff"
         surfaceScale="10"
         diffuseConstant="1">
        <feDistantLight
           id="feDistantLight10815"
           azimuth="90"
           elevation="25" />
      </feDiffuseLighting>
      <feComposite
         k4="0"
         k3="0"
         k2="0"
         id="feComposite10817"
         result="composite1"
         k1="1"
         operator="arithmetic"
         in2="diffuse"
         in="diffuse" />
      <feComposite
         k4="0"
         k2="0"
         id="feComposite10819"
         result="composite2"
         k3="1"
         operator="arithmetic"
         k1="0.886275"
         in2="SourceGraphic"
         in="composite1" />
    </filter>
    <clipPath
       id="clipPath3126-0">
      <path
         style="fill:none;stroke:#000000;stroke-width:1px;stroke-linecap:butt;stroke-linejoin:miter;stroke-opacity:1"
         id="path3128-3"
         d="m 30,94 2,2 3,10 1,-12 3,15 V 90 l 2,5 3,14 V 90 l 2,2 3,17 3,-23 6.615678,25.91971 L 59,96 l 2,-6 2,25 6,-25 2,21 5,-22 5,24 1,-18 3,-6 1,23 5,-22 3,10 1,-9 3,6 V 78 L 95,86 94,69 92,82 90,78 89,64 84,83 83,79 80,49 77,75 75,83 71,56 67,79 65,85 64,43.695313 58,90 52,48 49,84 47,80 45,56 44,80 41,87 39,63 37,82 34,77 V 91 L 30,76 Z" />
    </clipPath>
    <clipPath
       id="clipPath2798-5">
      <path
         style="display:inline;overflow:visible;visibility:visible;fill:#000000;fill-opacity:1;fill-rule:nonzero;stroke:none;stroke-width:18.99;marker:none;enable-background:accumulate"
         id="path2800-3"
         d="M 64,6.875 C 50.736931,6.8749995 38.641338,11.015795 29.71875,17.96875 20.796162,24.921705 15.000001,34.870138 15,45.9375 v 4 C 6.141206,54.425978 -2.65625e-7,66.200002 0,80 3.5e-7,97.663999 10.049452,112 23,112 V 45.9375 c 1e-6,-8.28809 4.289844,-15.915956 11.65625,-21.65625 C 42.022656,18.540956 52.424603,14.875 64,14.875 c 11.575394,0 21.977345,3.665955 29.34375,9.40625 C 100.71016,30.021545 105,37.649411 105,45.9375 V 112 c 12.95055,0 23,-14.336001 23,-32 0,-13.799998 -6.14121,-25.574022 -15,-30.0625 v -4 C 113,34.870138 107.20384,24.921705 98.28125,17.96875 89.358662,11.015795 77.263067,6.8750003 64,6.875 Z M 26,49 v 63 c 2,0 4,-1 5,-3 V 51 c -1,-1 -3,-2 -5,-2 z m 76,0 c -2,0 -4,1 -5,2 v 58 c 1,2 3,3 5,3 z" />
    </clipPath>
    <filter
       id="filter10749-5"
       style="color-interpolation-filters:sRGB"
       x="-0.023497241"
       y="-0.021276207"
       width="1.046459"
       height="1.0423546">
      <feMorphology
         id="feMorphology10751-6"
         result="result0"
         in="SourceGraphic"
         radius="4" />
      <feGaussianBlur
         id="feGaussianBlur10753-1"
         result="result91"
         stdDeviation="1.1662394e-05"
         in="result0" />
      <feComposite
         id="feComposite10755-2"
         in2="result91"
         in="SourceGraphic"
         operator="in" />
    </filter>
    <filter
       id="filter10809-9"
       style="color-interpolation-filters:sRGB"
       x="-0.054836955"
       y="-0.066769369"
       width="1.1096739"
       height="1.1335387">
      <feGaussianBlur
         id="feGaussianBlur10811-1"
         result="blur"
         stdDeviation="1.5"
         in="SourceGraphic" />
      <feDiffuseLighting
         id="feDiffuseLighting10813-7"
         result="diffuse"
         lighting-color="#ffffff"
         surfaceScale="10"
         diffuseConstant="1">
        <feDistantLight
           id="feDistantLight10815-0"
           azimuth="90"
           elevation="25" />
      </feDiffuseLighting>
      <feComposite
         k4="0"
         k3="0"
         k2="0"
         id="feComposite10817-6"
         result="composite1"
         k1="1"
         operator="arithmetic"
         in2="diffuse"
         in="diffuse" />
      <feComposite
         k4="0"
         k2="0"
         id="feComposite10819-9"
         result="composite2"
         k3="1"
         operator="arithmetic"
         k1="0.886275"
         in2="SourceGraphic"
         in="composite1" />
    </filter>
  </defs>
  <g
     inkscape:groupmode="layer"
     id="layer9"
     inkscape:label="background wave"
     style="display:none"
     sodipodi:insensitive="true">
    <path
       d="m 61.15625,38.521869 c -2.294445,5.742238 -4.504421,15.244785 -7.173423,4.312915 -2.001608,-7.764637 -6.278699,4.865707 -9.389077,7.030835 -6.273228,4.768656 -9.745087,11.488411 -12.53125,18.6875 -7.377751,-6.273358 -4.610431,3.794884 -5.0625,8.71875 0.402184,7.380888 -0.800512,15.452086 0.59375,22.406251 5.854747,5.10155 10.089878,13.15352 18.802059,13.04976 5.959442,2.07139 5.213051,-6.94006 10.616691,0.53774 4.972912,6.81603 8.043984,2.83082 11.290095,-0.52223 4.743263,7.26056 6.196016,-8.68733 10.197405,-1.53402 6.184179,2.40622 11.729123,3.55166 12.743737,-4.61035 1.269961,-6.4463 12.353043,-6.57697 9.756263,-14.327151 -0.36218,-8.040994 0.71936,-16.655977 -0.53125,-24.34375 -4.197507,-3.276078 -7.436068,-10.841229 -12.21875,-11.5 -5.917514,2.871708 -3.637455,-9.789656 -6.072621,-13.516435 -0.796195,-9.785915 -2.892314,-5.361098 -5.171116,1.34977 -1.260879,9.661168 -6.561377,5.05567 -9.268858,-1.267371 -2.408512,-2.024864 -5.152997,-12.723556 -6.581155,-4.472214 z"
       id="path3178"
       style="display:inline;fill:#ffd521;fill-opacity:1;fill-rule:evenodd;stroke:#ffd521;stroke-width:3.46905;stroke-linejoin:round;stroke-miterlimit:4;stroke-dasharray:none;stroke-dashoffset:0;stroke-opacity:1;paint-order:markers fill stroke;filter:url(#filter10749)"
       transform="matrix(1.1535251,0,0,1.2109304,270.40886,-15.103462)" />
    <ellipse
       style="opacity:1;fill:#ffd521;fill-opacity:1;stroke:#ffd521;stroke-width:4.96512;stroke-linejoin:round;stroke-miterlimit:4;stroke-dasharray:none;stroke-dashoffset:0;stroke-opacity:1;paint-order:markers fill stroke"
       id="path78158"
       cx="75.792732"
       cy="108.94579"
       rx="39.274036"
       ry="40.603573" />
  </g>
  <g
     inkscape:groupmode="layer"
     id="layer1"
     inkscape:label="goatee"
     style="display:inline"
     sodipodi:insensitive="true">
    <path
       style="fill:#c87137;fill-opacity:1;fill-rule:evenodd;stroke:#000000;stroke-width:1.02939px;stroke-linecap:butt;stroke-linejoin:miter;stroke-opacity:1"
       d="m 58.388516,136.98967 v 0"
       id="path975"
       inkscape:connector-type="polyline"
       inkscape:connector-curvature="0"
       sodipodi:nodetypes="cscccacc" />
    <g
       style="display:inline"
       id="g7489"
       transform="matrix(1.0604133,0,0,0.99927351,2.9434109,-5.0106898)">
      <g
         id="layer9-2"
         style="display:none">
        <path
           d="m 61.15625,38.521869 c -2.294445,5.742238 -4.504421,15.244785 -7.173423,4.312915 -2.001608,-7.764637 -6.278699,4.865707 -9.389077,7.030835 -6.273228,4.768656 -9.745087,11.488411 -12.53125,18.6875 -7.377751,-6.273358 -4.610431,3.794884 -5.0625,8.71875 0.402184,7.380888 -0.800512,15.452086 0.59375,22.406251 5.854747,5.10155 10.089878,13.15352 18.802059,13.04976 5.959442,2.07139 5.213051,-6.94006 10.616691,0.53774 4.972912,6.81603 8.043984,2.83082 11.290095,-0.52223 4.743263,7.26056 6.196016,-8.68733 10.197405,-1.53402 6.184179,2.40622 11.729123,3.55166 12.743737,-4.61035 1.269961,-6.4463 12.353043,-6.57697 9.756263,-14.327151 -0.36218,-8.040994 0.71936,-16.655977 -0.53125,-24.34375 -4.197507,-3.276078 -7.436068,-10.841229 -12.21875,-11.5 -5.917514,2.871708 -3.637455,-9.789656 -6.072621,-13.516435 -0.796195,-9.785915 -2.892314,-5.361098 -5.171116,1.34977 -1.260879,9.661168 -6.561377,5.05567 -9.268858,-1.267371 -2.408512,-2.024864 -5.152997,-12.723556 -6.581155,-4.472214 z"
           id="path3178-0"
           style="display:inline;fill:#ffd521;fill-opacity:1;fill-rule:evenodd;stroke:#ffd521;stroke-width:3.46905;stroke-linejoin:round;stroke-miterlimit:4;stroke-dasharray:none;stroke-dashoffset:0;stroke-opacity:1;paint-order:markers fill stroke;filter:url(#filter10749-5)"
           transform="matrix(1.1535251,0,0,1.2109304,270.40886,-15.103462)" />
        <ellipse
           style="opacity:1;fill:#ffd521;fill-opacity:1;stroke:#ffd521;stroke-width:4.96512;stroke-linejoin:round;stroke-miterlimit:4;stroke-dasharray:none;stroke-dashoffset:0;stroke-opacity:1;paint-order:markers fill stroke"
           id="path78158-5"
           cx="75.792732"
           cy="108.94579"
           rx="39.274036"
           ry="40.603573" />
      </g>
      <g
         id="layer1-9"
         transform="matrix(2.2367335,-0.47035377,0.47812152,1.677693,-124.04451,-76.579493)">
        <path
           style="fill:#c87137;fill-opacity:1;fill-rule:evenodd;stroke:#000000;stroke-width:2.1099;stroke-linecap:butt;stroke-linejoin:miter;stroke-miterlimit:4;stroke-dasharray:none;stroke-opacity:1"
           d="m 54.702504,143.44981 c -0.09157,1.63325 -0.677987,4.86196 -0.547564,7.64931 0.141438,3.02276 1.588609,8.95202 1.588609,8.95202 l 2.358843,-3.8013 2.369891,4.19023 c 0,0 2.157273,-5.91955 2.366854,-9.02386 0.178853,-2.64917 -0.96517,-7.92082 -0.96517,-7.92082 z"
           id="path975-7" />
      </g>
    </g>
  </g>
  <g
     inkscape:groupmode="layer"
     id="layer8"
     inkscape:label="wave"
     style="display:none"
     sodipodi:insensitive="true">
    <g
       transform="matrix(1.1535251,0,0,1.0694394,-0.93709535,15.036132)"
       id="g3305"
       style="display:inline;stroke:#000000;stroke-width:0;stroke-miterlimit:4;stroke-dasharray:none;stroke-opacity:1">
      <g
         clip-path="url(#clipPath3126)"
         id="g3122"
         style="stroke:#000000;stroke-width:0;stroke-miterlimit:4;stroke-dasharray:none;stroke-opacity:1"
         transform="matrix(0.97866609,0,0,1,3.8186813,-1.7370252)">
        <path
           d="M 28,116 V 43 h 72 v 73 z"
           id="path3120"
           style="fill:#ff0000;fill-opacity:1;fill-rule:evenodd;stroke:#000000;stroke-width:0;stroke-miterlimit:4;stroke-dasharray:none;stroke-opacity:1" />
        <path
           d="m 29.5,79.062499 8,5 3,-9 5,6 6,-10 2,12 2,-8 3,6 1,-6 c 0,0 3,8 3,7 0,-1 4,-15 4,-15 l 4,13 6,-12 3,13 5,-9 3,9 5,-5 6,6 v 8 l -4,3 -6,-2 -4,-2 -1,10 -2,-10 -4,9 -6,-9 -2,9 -4,-6 -5,13.000001 -3,-15.000001 -6,3 -4,-6 -2,10 -4,-5 -4,5 -2,-3 -6,1 z"
           id="path3118"
           style="fill:#ff0000;fill-opacity:1;fill-rule:evenodd;stroke:#000000;stroke-width:0;stroke-miterlimit:4;stroke-dasharray:none;stroke-opacity:1" />
      </g>
    </g>
  </g>
  <g
     inkscape:groupmode="layer"
     id="layer3"
     inkscape:label="wave 1"
     style="display:inline"
     sodipodi:insensitive="true">
    <g
       fill="none"
       id="g7671"
       transform="matrix(0.53901133,0,0,1.083119,-324.56354,-442.93938)"
       style="fill:#ffff00;fill-opacity:1;stroke:#000000;stroke-width:5.57153;stroke-miterlimit:4;stroke-dasharray:none;stroke-opacity:1">
      <path
         id="path7669"
         style="fill:#ffd300;fill-opacity:1;stroke:#000000;stroke-width:5.57153;stroke-miterlimit:4;stroke-dasharray:none;stroke-opacity:1"
         d="m 754.97133,475.79308 c -4.9781,0 -11.07822,14.06381 -15.42846,27.85386 h 0.15078 c -0.0926,0.25272 -0.18455,0.48997 -0.27711,0.74277 h 30.65723 c 4.69839,13.25772 9.66432,24.93012 14.49224,24.93012 4.94104,0 8.37975,-11.39468 12.25165,-24.97464 l -26.50466,0.0851 c -3.07807,-8.44225 -6.00109,-17.65796 -9.2738,-22.65122 -2.00642,-3.6607 -4.02569,-5.986 -6.06787,-5.986 z m 42.03159,28.58444 26.59024,-0.0877 c -4.35028,-13.79004 -8.74693,-28.40645 -13.72506,-28.40645 -5.01514,0 -12.86518,26.65363 -12.86518,28.49414 z m -57.58638,0.0122 H 708.0258 c 5.001,13.65868 9.50926,24.91637 15.20272,24.91637 5.69346,0 11.18701,-11.25769 16.18802,-24.91637 z m -31.39074,0 c -5.00101,-13.65869 -9.87247,-28.55419 -15.56593,-28.55419 -5.69346,0 -10.84945,14.8955 -15.82482,28.55419 z"
         sodipodi:nodetypes="sccccscccssccsscccsccscc" />
    </g>
  </g>
  <g
     inkscape:groupmode="layer"
     id="g13910"
     inkscape:label="Copie de wave 1"
     sodipodi:insensitive="true">
    <g
       fill="none"
       id="g13908"
       transform="matrix(0.54406353,0,0,-0.79002243,-328.10108,500.95878)"
       style="fill:#ff6600;fill-opacity:1;stroke:#000000;stroke-width:5.57153;stroke-miterlimit:4;stroke-dasharray:none;stroke-opacity:1">
      <path
         id="path13906"
         style="fill:#ff6600;fill-opacity:1;stroke:#000000;stroke-width:5.57153;stroke-miterlimit:4;stroke-dasharray:none;stroke-opacity:1"
         d="m 754.97133,475.79308 c -4.9781,0 -11.07822,14.06381 -15.42846,27.85386 h 0.15078 c -0.0926,0.25272 -0.18455,0.48997 -0.27711,0.74277 h 30.65723 c 4.69839,13.25772 9.66432,24.93012 14.49224,24.93012 4.94104,0 8.37975,-11.39468 12.25165,-24.97464 l -26.50466,0.0851 c -3.07807,-8.44225 -6.00109,-17.65796 -9.2738,-22.65122 -2.00642,-3.6607 -4.02569,-5.986 -6.06787,-5.986 z m 42.03159,28.58444 26.59024,-0.0877 c -4.35028,-13.79004 -8.74693,-28.40645 -13.72506,-28.40645 -5.01514,0 -12.86518,26.65363 -12.86518,28.49414 z m -57.58638,0.0122 H 708.0258 c 5.001,13.65868 9.50926,24.91637 15.20272,24.91637 5.69346,0 11.18701,-11.25769 16.18802,-24.91637 z m -31.39074,0 c -5.00101,-13.65869 -9.87247,-28.55419 -15.56593,-28.55419 -5.69346,0 -10.84945,14.8955 -15.82482,28.55419 z"
         sodipodi:nodetypes="sccccscccssccsscccsccscc" />
    </g>
  </g>
  <g
     inkscape:groupmode="layer"
     id="layer6"
     inkscape:label="headphone"
     style="display:inline"
     sodipodi:insensitive="true">
    <g
       transform="matrix(1.2232134,0,0,1.2100507,1.3920256,3.4558752)"
       id="g8117"
       style="display:inline;stroke:#000000;stroke-width:6.83826;stroke-miterlimit:4;stroke-dasharray:none;stroke-opacity:1">
      <g
         transform="translate(0,0.2718691)"
         clip-path="url(#clipPath2798)"
         id="g2792"
         style="fill:#0000cc;fill-opacity:1;stroke:#000000;stroke-width:6.83826;stroke-miterlimit:4;stroke-dasharray:none;stroke-opacity:1">
        <path
           style="display:inline;overflow:visible;visibility:visible;fill:#1051c0;fill-opacity:1;fill-rule:nonzero;stroke:#000000;stroke-width:6.83826;stroke-miterlimit:4;stroke-dasharray:none;stroke-opacity:1;marker:none;filter:url(#filter10809);enable-background:accumulate"
           d="M 64,6.875 C 50.736931,6.8749995 38.641338,11.015795 29.71875,17.96875 20.796162,24.921705 15.000001,34.870138 15,45.9375 v 4 C 6.141206,54.425978 -2.65625e-7,66.200002 0,80 3.5e-7,97.663999 10.049452,112 23,112 V 45.9375 c 1e-6,-8.28809 4.289844,-15.915956 11.65625,-21.65625 C 42.022656,18.540956 52.424603,14.875 64,14.875 c 11.575394,0 21.977345,3.665955 29.34375,9.40625 C 100.71016,30.021545 105,37.649411 105,45.9375 V 112 c 12.95055,0 23,-14.336001 23,-32 0,-13.799998 -6.14121,-25.574022 -15,-30.0625 v -4 C 113,34.870138 107.20384,24.921705 98.28125,17.96875 89.358662,11.015795 77.263067,6.8750003 64,6.875 Z"
           id="path4161" />
        <path
           style="display:inline;overflow:visible;visibility:visible;fill:#0000cc;fill-opacity:1;fill-rule:nonzero;stroke:#000000;stroke-width:6.83826;stroke-miterlimit:4;stroke-dasharray:none;stroke-opacity:1;marker:none;enable-background:accumulate"
           d="m 26,49 v 63 c 2,0 4,-1 5,-3 V 51 c -1,-1 -3,-2 -5,-2 z"
           id="path4159" />
        <path
           style="display:inline;overflow:visible;visibility:visible;fill:#0000cc;fill-opacity:1;fill-rule:nonzero;stroke:#000000;stroke-width:6.83826;stroke-miterlimit:4;stroke-dasharray:none;stroke-opacity:1;marker:none;enable-background:accumulate"
           d="m 102,49 c -2,0 -4,1 -5,2 v 58 c 1,2 3,3 5,3 z"
           id="path2127" />
      </g>
    </g>
  </g>
  <g
     inkscape:groupmode="layer"
     id="layer10"
     inkscape:label="hat"
     style="display:inline"
     sodipodi:insensitive="true">
    <g
       inkscape:groupmode="layer"
       id="layer2"
       inkscape:label="body hat"
       style="display:inline;opacity:1">
      <path
         id="path1559"
         style="display:inline;opacity:1;fill:#f13428;fill-opacity:1;fill-rule:evenodd;stroke:#000000;stroke-width:4.62677;stroke-linecap:butt;stroke-linejoin:miter;stroke-miterlimit:4;stroke-dasharray:none;stroke-opacity:1"
         inkscape:transform-center-x="16.734447"
         inkscape:transform-center-y="17.769275"
         d="M 81.355096,3.6832899 C 77.924408,3.7156264 59.742038,5.9817959 57.677025,6.3159699 46.885985,9.370814 28.139511,24.533248 22.059754,28.519097 c -0.704063,4.744817 0.03395,17.400081 0.150205,33.401069 0,0 45.812407,-13.061826 66.771374,-15.798675 19.939007,-2.603654 44.422417,-3.713076 44.422417,-3.713076 0,0 -8.03146,-31.595061 -13.67506,-34.146206 C 113.96487,5.6567072 96.221399,3.5430189 81.355096,3.6832899 Z M 133.40375,42.408415 c 0,0 15.39646,4.693623 22.26128,8.601032 1.81357,1.03227 4.87113,3.847825 4.87113,3.847825 2.0518,0.817268 2.16549,2.027707 -7.85362,0.663312 C 140.29726,53.833956 128.69629,54.97597 124.78285,55.082871 109.80446,55.492062 91.311697,64.425338 83.871451,63.473345 73.691555,62.170814 53.701776,52.766735 53.701776,52.766735"
         sodipodi:nodetypes="scccscsscacsssc" />
      <path
         style="fill:none;fill-rule:evenodd;stroke:#000000;stroke-width:4.76299;stroke-linecap:butt;stroke-linejoin:miter;stroke-miterlimit:4;stroke-dasharray:none;stroke-opacity:1"
         d="M 57.683337,6.3054276 60.392345,51.200099"
         id="path14706"
         inkscape:connector-type="polyline"
         inkscape:connector-curvature="0"
         sodipodi:nodetypes="cac" />
    </g>
    <g
       inkscape:groupmode="layer"
       id="layer7"
       inkscape:label="sticker"
       style="display:inline">
      <rect
         style="display:inline;opacity:1;fill:#63c242;fill-opacity:1;stroke:#000000;stroke-width:5.3134;stroke-miterlimit:4;stroke-dasharray:none;stroke-opacity:1;paint-order:fill markers stroke"
         id="rect44776"
         width="32.712627"
         height="16.493755"
         x="77.038414"
         y="23.006626"
         ry="2.4070508"
         transform="matrix(0.99795487,-0.06392251,0.04227218,0.99910613,0,0)"
         rx="3.7518835" />
    </g>
  </g>
</svg>
