/* XPM */
static const char  * const sneedacity16_xpm[] = {
/* columns rows colors chars-per-pixel */
"16 16 130 2 ",
"   c None",
".  c #77491B",
"X  c #815026",
"o  c #98613B",
"O  c #A1662D",
"+  c #B5733F",
"@  c #EA4E2A",
"#  c #EC4D2E",
"$  c #F34C27",
"%  c #F44D26",
"&  c #F24D28",
"*  c #E9562A",
"=  c #EC552B",
"-  c #E9522C",
";  c #F25129",
":  c #F2522A",
">  c #F1542B",
",  c #F1562F",
"<  c #F35B2D",
"1  c #F25931",
"2  c #F15D35",
"3  c #F45D35",
"4  c #D6692E",
"5  c #D36C2F",
"6  c #D66430",
"7  c #C97631",
"8  c #C07F33",
"9  c #D27737",
"0  c #DC723A",
"q  c #EA6E3C",
"w  c #F46C38",
"e  c #F46D3A",
"r  c #AE475A",
"t  c #A54961",
"y  c #AC616D",
"u  c #C55451",
"i  c #F26A42",
"p  c #F36B43",
"a  c #F46D43",
"s  c #EC7446",
"d  c #F27148",
"f  c #F4794E",
"g  c #C06969",
"h  c #D67660",
"j  c #CF822B",
"k  c #F3952F",
"l  c #F5952D",
"z  c #F8843E",
"x  c #F59832",
"c  c #F49A34",
"v  c #F69F39",
"b  c #F1A03E",
"n  c #F7A23C",
"m  c #F8A43E",
"M  c #918257",
"N  c #B2814E",
"B  c #A28A56",
"V  c #AC9056",
"C  c #8AB640",
"Z  c #84BC41",
"A  c #D9974A",
"S  c #F98C42",
"D  c #F98E42",
"F  c #FB9946",
"G  c #FE9C46",
"H  c #F38458",
"J  c #F38459",
"K  c #F4A743",
"L  c #F9A943",
"P  c #FAA942",
"I  c #FAAC46",
"U  c #FBAC46",
"Y  c #F8AC48",
"T  c #FDAA4E",
"R  c #FDB44E",
"E  c #FCB54F",
"W  c #F5B354",
"Q  c #FEB050",
"!  c #FEB650",
"~  c #FEB452",
"^  c #FEB852",
"/  c #FEB953",
"(  c #FFB953",
")  c #FFBA52",
"_  c #FFBA54",
"`  c #FFBB55",
"'  c #FCBB57",
"]  c #FFBC54",
"[  c #FFBD54",
"{  c #FFBC55",
"}  c #FFBD56",
"|  c #F28E61",
" . c #EA916A",
".. c #F49466",
"X. c #F29F72",
"o. c #D7AE6B",
"O. c #DFB065",
"+. c #E5B262",
"@. c #7D4F84",
"#. c #73508C",
"$. c #654F96",
"%. c #725E94",
"&. c #4356B4",
"*. c #4F65B7",
"=. c #716FA9",
"-. c #1C51CD",
";. c #2C51C1",
":. c #3262C9",
">. c #436BC1",
",. c #907A9C",
"<. c #AB7987",
"1. c #7F949C",
"2. c #76A1B6",
"3. c #7AA2B3",
"4. c #76A6BD",
"5. c #71A5C6",
"6. c #75ADC8",
"7. c #8D9792",
"8. c #A19F8B",
"9. c #84BFD6",
"0. c #87C4D6",
"q. c #89C5D6",
"w. c #88C4D7",
"e. c #8ECBDA",
"r. c #92D0DD",
"t. c #99D8E2",
"y. c #9AD9E3",
"u. c #9FDEE6",
"i. c #9FDFE7",
"p. c #A3E3E9",
/* pixels */
"      :.*.=.,.<.y u t           ",
"    &.y h  .X...f 3 # r         ",
"    $.1 a J | J s 9 7 6         ",
"  -.#.: 2 p d p 0 C Z j         ",
"  ;.@.% > w w , = 5 4 * &       ",
"  >.%.q F ~ Q z < $ $ : - @     ",
"  9.5.8.` { { ` T S S G N       ",
"u.t.0.3.+.` ` ` { { { { V       ",
"p.u.e.4.o.{ ` ` ` ` ` / B       ",
"u.t.w.2.O.{ ` ` ` ` ` R M       ",
"r.w.6.7.W ` ` ` ` ` / Y         ",
"    1.A L R / ` / ~ U m         ",
"      l c n L U K b v           ",
"          k x j O +             ",
"                X o             ",
"                  .             "
};
