/* XPM */
static const char  * const sneedacity16_xpm[] = {
"16 16 132 2",
"  	c None",
". 	c #320A09",
"+ 	c #5D150F",
"@ 	c #661611",
"# 	c #6A1611",
"$ 	c #621510",
"% 	c #52120D",
"& 	c #3A0C0A",
"* 	c #901F18",
"= 	c #801B15",
"- 	c #F13428",
"; 	c #9E2F1E",
"> 	c #603018",
", 	c #5B3419",
"' 	c #6C2F19",
") 	c #AC251C",
"! 	c #48100C",
"~ 	c #D62D24",
"{ 	c #811C15",
"] 	c #563A19",
"^ 	c #63C242",
"/ 	c #5EB83F",
"( 	c #42441B",
"_ 	c #911F18",
": 	c #9E301E",
"< 	c #642C17",
"[ 	c #722C18",
"} 	c #A22D1E",
"| 	c #EA3327",
"1 	c #561410",
"2 	c #891E19",
"3 	c #7D1B15",
"4 	c #9B221A",
"5 	c #7D1C15",
"6 	c #761A14",
"7 	c #7C1A15",
"8 	c #7C1B15",
"9 	c #861D16",
"0 	c #97201A",
"a 	c #671612",
"b 	c #3F0D0B",
"c 	c #450F0D",
"d 	c #631611",
"e 	c #44100B",
"f 	c #2C0A08",
"g 	c #490F0C",
"h 	c #A5241B",
"i 	c #C92B21",
"j 	c #891D16",
"k 	c #5F1510",
"l 	c #4C110C",
"m 	c #2F0C0B",
"n 	c #310C0C",
"o 	c #410E0B",
"p 	c #020811",
"q 	c #030F26",
"r 	c #000041",
"s 	c #000051",
"t 	c #01042A",
"u 	c #04132D",
"v 	c #0D44A0",
"w 	c #061D45",
"x 	c #000038",
"y 	c #504200",
"z 	c #5D4E00",
"A 	c #5A4B00",
"B 	c #050442",
"C 	c #01042C",
"D 	c #1050BE",
"E 	c #030D1F",
"F 	c #031026",
"G 	c #1053C5",
"H 	c #AD8F00",
"I 	c #4A3000",
"J 	c #6F2C00",
"K 	c #937900",
"L 	c #766100",
"M 	c #502000",
"N 	c #947A00",
"O 	c #12103C",
"P 	c #1154C6",
"Q 	c #0A3379",
"R 	c #061E48",
"S 	c #135EDE",
"T 	c #010135",
"U 	c #674B00",
"V 	c #402000",
"W 	c #7E3300",
"X 	c #452F00",
"Y 	c #392400",
"Z 	c #7E3200",
"` 	c #140E36",
" .	c #1157CD",
"..	c #0D4098",
"+.	c #041836",
"@.	c #1361E6",
"#.	c #000036",
"$.	c #BB4A00",
"%.	c #582D00",
"&.	c #8F7600",
"*.	c #843600",
"=.	c #733100",
"-.	c #907600",
";.	c #8A3800",
">.	c #1A0A38",
",.	c #135EDF",
"'.	c #0C3E93",
").	c #1777FF",
"!.	c #672900",
"~.	c #432E00",
"{.	c #9A7F00",
"].	c #6D2C00",
"^.	c #572300",
"/.	c #776300",
"(.	c #6E2C00",
"_.	c #0B043F",
":.	c #1A82FF",
"<.	c #061E47",
"[.	c #072250",
"}.	c #071C45",
"|.	c #392F00",
"1.	c #331B0F",
"2.	c #3C2111",
"3.	c #2E2700",
"4.	c #00004A",
"5.	c #1154C7",
"6.	c #BD6B34",
"7.	c #2E190C",
"8.	c #381F10",
"9.	c #884D25",
"0.	c #341D0D",
"a.	c #190F08",
"          . + @ # $ %           ",
"      & * = - ; > , ' )         ",
"    ! ~ - { - ] ^ / ( - !       ",
"    _ - - { - : < [ } | 1       ",
"    2 - - 3 4 5 6 7 8 9 0 a b   ",
"    c d e f g h i j k l m n o   ",
"  p q r               s t u     ",
"  v w x y     z     A B C D E   ",
"F G w x H I J K L M N O C P Q   ",
"R S w T U V W X Y Z X ` C  ...  ",
"+.@.w #.$.%.&.*.=.-.;.>.C ,.'.  ",
"  ).w x !.~.{.].^./.(._.C :.<.  ",
"  [.}.x     |.1.2.3.  4.C 5.    ",
"              , 6.7.            ",
"              8.9.0.            ",
"                a.              "};
